<svg version="1.1" viewBox="0 0 820 620" xmlns="http://www.w3.org/2000/svg">
  <g transform="scale(1 -1)">
    <g transform="translate(0 -600)" fill="#ffcc99">
      <line id="x" x1="0" x2="820" y1="0" y2="0" stroke="#000000"/>
      <polygon id="D1" points="11 206 46 171 111 171"/>
      <polygon id="D2" points="111 171 81 206 11 206"/>
      <polygon id="D3" points="10 38 46 171 11 206"/>
      <polygon id="D4" points="10 38 46 0 46 171"/>
      <polygon id="D5" points="46 171 111 171 111 106"/>
      <polygon id="D6" points="146 36 146 71 46 171"/>
      <polygon id="D7" points="111 0 146 36 46 171"/>
      <polygon id="D8" points="46 0 111 0 46 171"/>
      <polygon id="D9" points="177 196 211 0 217 59"/>
      <polygon id="D10" points="211 0 231 190 260 0"/>
      <polygon id="D11" points="260 0 292 196 252 59"/>
      <polygon id="D12" points="352 195 352 0 397 195"/>
      <polygon id="D13" points="397 195 397 0 352 0"/>
      <polygon id="D14" points="466 196 496 0 466 31"/>
      <polygon id="D15" points="496 166 496 0 466 196"/>
      <polygon id="D16" points="596 66 496 66 496 166"/>
      <polygon id="D17" points="650 196 685 0 650 36"/>
      <polygon id="D18" points="650 196 685 166 685 0"/>
      <polygon id="D19" points="780 166 650 196 685 166"/>
      <polygon id="D20" points="685 114 780 84 685 84"/>
      <polygon id="D21" points="561 196 561 101 596 66"/>
      <polygon id="D22" points="561 196 596 161 596 66"/>
      <polygon id="D23" points="596 66 596 0 526 66"/>
    </g>
  </g>
</svg>