<svg version="1.1" viewBox="0 0 1024 768" xmlns="http://www.w3.org/2000/svg">
  <g transform="scale(1 -1)">
    <g transform="translate(0 -768)">
	    <line id="y" x1="0" x2="0" y1="0" y2="768" fill="none" stroke="#212121" stroke-width="3"/>
      <polygon id="P1" points="539 98 549 98 599 118 569 158 519 198 489 138" fill="#6B6B6B" stroke="#212121" stroke-width="2"/>
      <polygon id="P2" points="559 178 569 178 609 248 519 238" fill="#6B6B6B" stroke="#212121" stroke-width="2"/>
      <polygon id="P3" points="389 78 459 68 599 68 479 88 459 178 509 248 599 258 499 298" fill="#6B6B6B" stroke="#212121" stroke-width="2"/>
      <polygon id="P4" points="320 98 330 98 370 118 360 158 330 198 300 158 280 118" fill="#6B6B6B" stroke="#212121" stroke-width="2"/>
      <polygon id="P5" points="380 208 390 188 430 208 380 228 390 288 360 248 340 208" fill="#6B6B6B" stroke="#212121" stroke-width="2"/>
      <polygon id="P6" points="352 287 445 305 386 366 291 296" fill="#6B6B6B" stroke="#212121" stroke-width="2"/>
      <polygon id="P7" points="319 18 293 53 365 80 238 73 257 15" fill="#6B6B6B" stroke="#212121" stroke-width="2"/>
      <polygon id="P8" points="637 248 516 330 426 238 462 302 451 350 613 348 761 346 754 231 685 183" fill="#6B6B6B" stroke="#212121" stroke-width="2"/>
      <circle id="L" cx="479" cy="168" r="10" fill="#F42121" stroke="#000080" stroke-width="1"/>
      <polyline id="R" points="479 168" fill="none" stroke="#000080" stroke-width="4"/>
	  </g>
  </g>
</svg>